<?xml version="1.0" standalone="no"?>
<!DOCTYPE svg PUBLIC "-//W3C//DTD SVG 20010904//EN"
 "http://www.w3.org/TR/2001/REC-SVG-20010904/DTD/svg10.dtd">
<svg version="1.0" xmlns="http://www.w3.org/2000/svg"
 width="1187.000000pt" height="575.000000pt" viewBox="0 0 1187.000000 575.000000"
 preserveAspectRatio="xMidYMid meet">

<g transform="translate(0.000000,575.000000) scale(0.100000,-0.100000)"
fill="#000000" stroke="none">
<path d="M5560 4635 c0 -124 -2 -225 -4 -225 -2 0 -33 7 -68 17 -75 19 -223
21 -299 3 -176 -42 -301 -175 -356 -380 -24 -89 -24 -282 0 -369 42 -155 133
-276 252 -336 57 -29 66 -30 185 -30 l125 0 89 43 c68 33 91 40 98 30 4 -7 8
-16 8 -20 0 -4 7 -14 16 -22 11 -12 36 -16 95 -16 l79 0 0 765 0 765 -110 0
-110 0 0 -225z m-47 -401 l47 -18 0 -328 0 -327 -27 -15 c-16 -7 -59 -23 -97
-35 -165 -51 -295 -8 -357 116 -23 45 -24 58 -24 233 0 174 2 188 24 233 27
55 115 139 162 155 50 17 214 8 272 -14z"/>
<path d="M2720 4090 l0 -760 110 0 110 0 0 285 c0 157 3 285 8 284 4 0 108
-128 232 -284 l225 -284 129 0 c101 -1 126 2 119 12 -5 6 -111 138 -234 292
-124 154 -229 286 -233 294 -6 9 57 79 225 247 l234 234 -125 0 -125 0 -220
-220 c-121 -121 -223 -220 -227 -220 -5 0 -8 198 -8 440 l0 440 -110 0 -110 0
0 -760z"/>
<path d="M8906 4804 c-22 -22 -23 -166 -1 -184 17 -14 155 -18 191 -6 25 8 34
32 34 92 0 66 -16 101 -52 108 -61 12 -156 7 -172 -10z"/>
<path d="M1865 4780 c-11 -4 -30 -18 -42 -31 -38 -42 -20 12 -393 -1146 l-87
-273 103 0 c88 0 105 3 112 18 5 9 36 101 67 205 l58 187 287 0 286 0 53 -172
c29 -95 59 -188 67 -205 l13 -33 112 0 c85 0 110 3 107 13 -3 6 -94 280 -203
607 -243 734 -258 771 -302 810 -32 29 -37 30 -126 29 -51 0 -101 -4 -112 -9z
m132 -252 c28 -74 193 -584 193 -597 0 -14 -387 -15 -423 -2 l-24 9 83 249
c111 327 135 393 144 393 4 0 16 -24 27 -52z"/>
<path d="M6375 4440 c-111 -16 -213 -66 -275 -136 -107 -122 -162 -376 -126
-582 48 -278 219 -415 516 -414 107 0 275 24 320 45 24 12 25 17 28 101 2 77
1 88 -13 82 -90 -34 -136 -41 -285 -41 -142 0 -159 2 -202 23 -86 43 -148 142
-148 239 l0 33 344 0 345 0 8 48 c4 26 8 106 8 177 0 125 -2 133 -32 196 -17
37 -47 84 -66 106 -85 93 -260 144 -422 123z m200 -186 c82 -38 115 -98 123
-221 l5 -83 -257 0 -256 0 0 38 c0 48 25 135 53 185 51 92 221 134 332 81z"/>
<path d="M8165 4416 c-49 -13 -123 -38 -163 -55 l-73 -32 -41 36 c-56 47 -120
65 -238 65 -112 0 -187 -17 -285 -65 -39 -19 -73 -35 -77 -35 -4 0 -15 15 -24
33 -23 44 -29 47 -106 47 l-68 0 0 -540 0 -540 105 0 105 0 2 423 3 422 85 34
c70 28 101 35 180 38 114 5 151 -11 170 -74 9 -30 25 -471 30 -810 l0 -33 105
0 105 0 0 424 0 423 83 34 c76 30 91 33 194 34 103 0 113 -2 136 -23 45 -42
49 -82 54 -500 l5 -393 102 3 101 3 3 150 c2 83 -2 278 -7 435 -11 319 -19
366 -77 429 -78 87 -237 113 -409 67z"/>
<path d="M4000 4425 c-8 -2 -49 -9 -90 -15 -112 -18 -110 -16 -110 -120 l0
-89 33 10 c133 38 394 53 458 26 74 -31 127 -132 117 -227 l-3 -35 -165 -12
c-282 -19 -360 -42 -434 -124 -56 -63 -70 -113 -64 -232 8 -142 47 -208 155
-262 50 -26 71 -30 158 -33 121 -5 200 12 291 63 34 19 65 35 68 35 3 0 14
-17 23 -37 l18 -38 89 -3 89 -3 -5 428 c-5 410 -6 430 -27 485 -16 41 -36 70
-72 102 -77 69 -114 78 -329 82 -102 1 -192 1 -200 -1z m410 -735 l0 -141 -47
-20 c-142 -62 -276 -71 -345 -26 -82 55 -82 239 1 282 39 20 171 36 344 43
l47 2 0 -140z"/>
<path d="M9528 4420 c-32 -5 -79 -16 -105 -23 l-48 -14 0 -81 c1 -45 3 -84 7
-87 3 -3 41 1 84 10 107 22 348 32 396 16 71 -23 107 -85 123 -208 8 -62 15
-59 -155 -68 -154 -8 -302 -31 -354 -53 -59 -27 -111 -75 -138 -130 -19 -40
-23 -63 -23 -152 0 -95 3 -110 28 -162 53 -107 150 -160 297 -160 104 -1 193
21 279 69 62 33 66 34 78 16 8 -10 16 -28 20 -40 5 -22 10 -23 95 -23 l90 0
-4 438 c-4 428 -4 438 -27 488 -28 64 -81 116 -146 145 -45 20 -68 23 -245 25
-107 2 -221 -1 -252 -6z m462 -729 l0 -140 -77 -29 c-247 -95 -382 -50 -383
128 0 67 26 115 73 135 45 18 189 37 345 43 l42 2 0 -139z"/>
<path d="M8900 3875 l0 -545 110 0 110 0 0 545 0 545 -110 0 -110 0 0 -545z"/>
<path d="M2232 2785 c-40 -18 -52 -48 -52 -136 0 -142 32 -166 211 -156 59 3
117 11 129 17 30 16 40 51 40 145 0 97 -13 121 -75 135 -62 15 -215 11 -253
-5z"/>
<path d="M9513 2785 c-184 -50 -263 -165 -263 -385 l0 -80 -94 0 -93 0 -6 -82
c-4 -46 -7 -98 -7 -115 l0 -33 100 0 100 0 0 -425 0 -425 172 0 171 0 -7 425
-7 425 151 0 150 0 0 120 0 120 -151 0 -151 0 4 70 c3 60 7 73 33 100 37 39
79 50 192 50 l92 0 6 58 c3 31 8 77 10 102 3 25 1 51 -4 58 -19 31 -303 42
-398 17z"/>
<path d="M10080 2782 c-41 -20 -48 -40 -49 -150 -1 -75 1 -85 24 -107 23 -24
29 -25 159 -25 128 0 136 1 163 24 27 23 28 28 28 119 0 108 -11 129 -74 147
-61 17 -211 12 -251 -8z"/>
<path d="M10673 2788 c-57 -12 -67 -34 -68 -138 0 -113 13 -134 92 -150 61
-13 202 -7 247 10 30 11 46 60 46 145 0 115 -40 146 -185 144 -49 -1 -109 -5
-132 -11z"/>
<path d="M724 2113 c3 -351 9 -691 13 -755 l6 -118 173 0 174 0 1 83 c1 45 4
186 8 312 l6 230 233 3 232 2 0 -315 0 -315 185 0 185 0 0 755 0 755 -185 0
-185 0 0 -290 0 -290 -235 0 -235 0 0 290 0 290 -191 0 -192 0 7 -637z"/>
<path d="M6210 2475 l0 -125 -80 0 -80 0 0 -130 0 -130 80 0 80 0 0 -222 c1
-279 11 -411 37 -469 29 -65 76 -114 141 -146 55 -27 63 -28 212 -28 140 0
160 2 204 23 l49 22 -7 112 c-4 62 -9 114 -11 116 -2 2 -27 -1 -55 -7 -28 -6
-71 -11 -96 -11 -39 0 -51 5 -80 34 l-34 34 0 271 0 271 140 0 140 0 0 130 0
130 -139 0 -139 0 -7 68 c-3 37 -8 93 -11 125 l-6 57 -169 0 -169 0 0 -125z"/>
<path d="M3300 2355 c-30 -9 -87 -31 -126 -49 l-72 -34 -15 39 -15 39 -141 0
-141 0 0 -780 0 -780 170 0 170 0 0 229 c0 139 4 232 10 236 5 3 33 -1 62 -10
74 -23 249 -31 332 -15 150 28 274 159 323 343 24 87 23 393 -1 491 -32 131
-104 227 -206 275 -48 22 -70 26 -175 28 -83 2 -137 -2 -175 -12z m103 -259
c18 -7 45 -27 59 -44 45 -54 53 -94 53 -267 0 -159 0 -160 -30 -214 -43 -78
-81 -93 -222 -89 -103 3 -108 4 -120 28 -9 18 -13 97 -13 293 0 147 1 267 3
267 1 0 27 9 57 20 65 23 166 26 213 6z"/>
<path d="M4406 2360 c-81 -15 -188 -73 -243 -133 -97 -107 -135 -228 -135
-432 0 -208 35 -318 138 -425 57 -60 128 -102 215 -126 121 -34 427 -27 559
12 l50 15 0 121 0 121 -37 -7 c-132 -24 -179 -27 -301 -24 -152 4 -195 17
-245 78 -24 28 -47 86 -47 118 0 9 74 12 339 12 l339 0 6 28 c3 15 9 79 12
142 7 129 -7 214 -50 298 -47 92 -139 163 -245 189 -70 17 -289 25 -355 13z
m264 -269 c38 -27 61 -74 67 -136 l6 -55 -187 0 -186 0 0 23 c0 45 30 123 57
150 16 14 46 31 68 36 55 14 145 5 175 -18z"/>
<path d="M5813 2360 c-45 -9 -86 -29 -177 -84 -32 -19 -63 -33 -67 -30 -5 3
-15 26 -22 52 l-14 47 -147 3 -146 3 0 -556 0 -555 175 0 175 0 0 384 0 383
83 28 c60 20 109 29 184 33 l102 5 5 41 c3 22 8 87 11 142 6 100 6 101 -17
108 -30 8 -92 6 -145 -4z"/>
<path d="M7575 2356 c-48 -15 -105 -45 -165 -85 -25 -17 -50 -31 -56 -31 -6 0
-18 25 -28 55 l-17 55 -145 0 -144 0 0 -555 0 -555 175 0 175 0 0 385 0 384
83 27 c58 19 112 28 184 31 l101 6 7 106 c3 58 7 124 8 146 l2 40 -70 2 c-38
1 -88 -4 -110 -11z"/>
<path d="M8254 2361 c-79 -13 -147 -39 -211 -80 -140 -90 -203 -241 -203 -486
0 -395 176 -575 563 -575 189 0 308 40 403 134 95 96 142 219 151 396 16 330
-113 547 -356 599 -71 15 -282 22 -347 12z m245 -279 c26 -14 44 -35 66 -77
30 -58 30 -60 29 -214 -1 -166 -10 -209 -57 -260 -71 -77 -207 -79 -279 -5
-50 51 -56 81 -57 269 -1 182 9 226 57 268 53 47 169 56 241 19z"/>
<path d="M2200 1795 l0 -555 175 0 175 0 0 555 0 555 -175 0 -175 0 0 -555z"/>
<path d="M10050 1795 l0 -555 170 0 170 0 0 555 0 555 -170 0 -170 0 0 -555z"/>
<path d="M10620 1795 l0 -555 180 0 180 0 0 555 0 555 -180 0 -180 0 0 -555z"/>
</g>
</svg>
