<?xml version="1.0" standalone="no"?>
<!DOCTYPE svg PUBLIC "-//W3C//DTD SVG 20010904//EN"
 "http://www.w3.org/TR/2001/REC-SVG-20010904/DTD/svg10.dtd">
<svg version="1.0" xmlns="http://www.w3.org/2000/svg"
 width="724.000000pt" height="247.000000pt" viewBox="0 0 724.000000 247.000000"
 preserveAspectRatio="xMidYMid meet">

<g transform="translate(0.000000,247.000000) scale(0.100000,-0.100000)"
fill="#000000" stroke="none">
<path d="M1126 1618 c-9 -34 -7 -131 3 -146 13 -21 558 -13 571 8 14 22 12
134 -2 148 -9 9 -87 12 -289 12 l-277 0 -6 -22z"/>
<path d="M438 1619 c-16 -9 -18 -30 -18 -218 0 -202 1 -208 23 -228 27 -25
141 -93 156 -93 6 0 11 15 11 33 0 45 9 53 59 60 24 3 47 9 51 14 12 13 22
126 12 141 -5 7 -31 16 -58 20 -46 7 -50 9 -58 44 -15 60 -1 68 115 68 114 0
113 -1 107 105 l-3 60 -190 2 c-117 2 -197 -1 -207 -8z"/>
<path d="M892 1621 c-11 -7 -13 -77 -10 -367 l3 -359 90 0 90 0 7 50 c12 95 9
660 -4 673 -14 14 -156 16 -176 3z"/>
<path fill="#b02818" d="M4000 1621 l-35 -6 0 -65 0 -65 155 -5 c164 -6 193 -14 236 -62 41
-44 56 -88 57 -162 1 -64 -2 -78 -32 -130 -18 -32 -29 -62 -24 -66 4 -5 35
-24 68 -43 70 -41 80 -39 117 30 36 65 52 157 45 251 -7 103 -32 165 -89 224
-70 72 -115 87 -287 98 -158 10 -159 10 -211 1z"/>
<path fill="#b02818" d="M2340 1565 c-52 -71 -84 -124 -77 -131 3 -3 60 -28 128 -55 68 -28
128 -55 134 -60 5 -5 14 -9 21 -9 14 0 24 137 16 238 l-5 72 -88 0 -88 0 -41
-55z"/>
<path fill="#b02818" d="M2841 1598 c-71 -29 -153 -105 -188 -176 -25 -52 -28 -67 -27 -162 0
-131 21 -185 100 -260 80 -76 146 -102 253 -103 47 0 104 6 126 13 43 14 126
65 169 105 36 33 33 13 -9 -49 -19 -29 -35 -58 -35 -65 0 -13 177 -16 198 -2
12 7 70 98 147 233 68 116 125 198 140 198 13 0 15 -29 15 -215 l0 -215 23 -5
c13 -4 50 -5 82 -3 l60 3 3 363 2 363 -92 -3 -93 -3 -97 -140 c-54 -77 -136
-196 -183 -265 -104 -154 -113 -165 -121 -158 -3 3 2 27 10 52 9 26 16 49 16
51 0 3 -38 5 -85 5 l-84 0 -33 -40 c-45 -57 -86 -80 -142 -80 -61 0 -113 27
-165 86 -41 47 -41 47 -41 130 0 78 2 85 33 126 91 119 191 129 298 30 l62
-57 73 -3 c92 -5 98 5 56 85 -36 70 -108 133 -186 162 -78 29 -209 28 -285 -1z"/>
<path fill="#b02818" d="M4652 1258 l3 -363 195 0 195 0 0 70 0 70 -104 7 c-58 5 -110 13
-115 18 -14 14 -12 98 3 113 6 6 32 14 59 17 l47 5 0 70 0 70 -55 5 -55 5 -6
49 c-8 76 5 85 126 88 l100 3 3 68 3 67 -201 0 -200 0 2 -362z"/>
<path fill="#b02818" d="M5578 1559 c-57 -83 -152 -221 -273 -399 -54 -80 -116 -168 -137
-197 -21 -29 -38 -57 -38 -63 0 -15 182 -13 201 3 14 11 86 121 102 157 4 8
20 35 36 60 17 25 44 70 61 100 45 78 80 121 91 115 5 -4 9 -85 9 -185 0 -98
3 -186 6 -195 5 -11 40 40 113 163 118 200 127 212 148 212 13 0 15 -30 12
-215 -3 -173 -2 -216 9 -220 8 -3 46 -5 86 -5 l73 0 5 188 c3 103 3 267 0 365
l-5 177 -88 0 c-96 0 -85 6 -143 -76 -22 -31 -36 -21 -45 33 l-6 38 -87 3 -87
3 -43 -62z"/>
<path fill="#b02818" d="M6160 1614 c0 -3 24 -41 53 -83 67 -95 149 -214 247 -356 l75 -110 5
-85 5 -85 80 0 80 0 8 170 c5 94 6 257 2 363 l-7 192 -79 0 c-92 0 -88 7 -92
-140 -3 -114 -17 -124 -61 -41 -16 29 -48 81 -71 115 l-41 61 -102 3 c-56 1
-102 0 -102 -4z"/>
<path fill="#b02818" d="M2128 1254 c-51 -74 -124 -179 -162 -232 -38 -53 -69 -104 -70 -112
-1 -20 111 -26 169 -10 37 11 45 20 110 130 39 66 95 159 126 207 31 48 55 92
52 96 -5 9 -110 57 -124 57 -4 0 -50 -61 -101 -136z"/>
<path  d="M1295 1304 c-8 -76 -2 -380 6 -389 9 -8 147 -10 156 -2 10 11 17 365
8 424 l-6 43 -79 0 -78 0 -7 -76z"/>
<path fill="#b02818" d="M2395 1309 c-10 -30 -11 -396 -2 -406 5 -4 44 -10 88 -12 l79 -3 2
98 c4 132 -2 287 -10 296 -4 4 -40 15 -79 26 -70 19 -73 19 -78 1z"/>
<path d="M1582 1301 c-9 -5 -12 -29 -10 -82 l3 -74 170 0 170 0 3 76 c3 72 2
77 -20 83 -34 9 -301 7 -316 -3z"/>
<path d="M437 1083 c-13 -22 -18 -81 -12 -133 l7 -58 44 -7 c24 -3 64 -3 89 1
l45 6 0 63 c0 38 -5 67 -12 73 -14 11 -136 62 -149 62 -4 0 -10 -3 -12 -7z"/>
<path fill="#b02818" d="M3992 1042 l-33 -3 3 -72 3 -72 110 -3 c148 -4 325 16 325 37 0 4
-48 30 -107 58 -98 47 -116 52 -188 55 -44 2 -95 2 -113 0z"/>
</g>
</svg>
