<?xml version="1.0" standalone="no"?>
<!DOCTYPE svg PUBLIC "-//W3C//DTD SVG 20010904//EN"
 "http://www.w3.org/TR/2001/REC-SVG-20010904/DTD/svg10.dtd">
<svg version="1.0" xmlns="http://www.w3.org/2000/svg"
 width="226.000000pt" height="223.000000pt" viewBox="0 0 226.000000 223.000000"
 preserveAspectRatio="xMidYMid meet">

<g transform="translate(0.000000,223.000000) scale(0.100000,-0.100000)"
fill="#000000" stroke="none">
<path d="M1128 1726 c3 -5 -2 -6 -12 -3 -9 4 -15 3 -12 -2 3 -4 -6 -19 -20
-32 -19 -18 -24 -30 -20 -51 3 -16 1 -28 -4 -28 -16 0 -11 -53 9 -93 28 -54
32 -67 21 -67 -6 0 -10 8 -10 18 0 10 -3 13 -8 6 -4 -7 -89 -14 -232 -19 -310
-12 -304 -12 -324 8 -20 19 -32 22 -41 7 -3 -5 -13 -6 -22 -3 -13 5 -15 2 -10
-18 5 -22 5 -22 -7 -6 -10 13 -22 16 -42 12 -28 -6 -28 -6 -10 9 11 9 23 16
27 16 12 0 -20 118 -46 171 -14 27 -36 53 -48 58 -12 5 -70 2 -132 -5 -60 -7
-118 -13 -127 -14 -31 0 -58 -40 -58 -84 l0 -41 20 43 c10 23 23 42 28 42 5 0
-3 -24 -17 -52 -25 -50 -26 -62 -29 -242 -3 -207 5 -254 58 -318 l26 -31 137
15 c97 11 143 20 156 32 26 24 43 88 51 191 l6 90 30 -61 c16 -34 53 -87 83
-120 l53 -58 82 17 c44 10 105 29 134 43 29 14 54 24 56 23 1 -2 14 -21 29
-42 44 -59 57 -100 57 -182 l0 -75 193 0 192 0 1 90 c1 74 -2 88 -13 78 -7 -6
-16 -8 -19 -5 -3 3 4 10 15 17 12 6 21 8 21 4 0 -3 16 18 36 47 51 75 49 74
86 51 32 -20 178 -62 215 -62 30 0 109 89 147 165 l35 70 0 -45 c1 -67 18
-160 37 -202 21 -46 40 -53 187 -68 l118 -13 25 24 25 24 -3 250 c-3 246 -3
251 -29 303 -14 28 -23 52 -19 52 5 0 17 -19 29 -42 l20 -42 0 57 c-1 35 -5
57 -13 58 -6 0 -63 6 -126 13 -67 8 -122 10 -132 5 -28 -15 -55 -61 -77 -133
-27 -87 -26 -94 4 -106 14 -5 25 -16 25 -24 0 -8 8 -17 18 -19 13 -4 11 -5 -5
-6 -15 -1 -23 5 -23 15 0 10 -6 14 -14 11 -8 -3 -17 -1 -20 6 -3 8 -10 5 -21
-8 -17 -20 -17 -20 -10 4 6 21 5 23 -14 18 -11 -3 -21 -1 -21 4 0 16 -29 10
-39 -8 -8 -16 -22 -18 -98 -15 -48 2 -173 6 -276 10 -104 4 -191 4 -194 0 -2
-5 -8 -8 -13 -8 -11 0 9 49 29 69 17 19 9 130 -13 163 -8 13 -15 28 -16 33 0
6 -11 9 -23 7 -15 -2 -18 0 -9 6 8 6 1 8 -22 8 -19 -1 -31 -5 -28 -10z m-926
-96 c-20 -42 -26 -72 -32 -178 l-8 -127 2 130 c2 128 10 165 48 213 18 21 16
13 -10 -38z m1907 12 c25 -48 41 -139 40 -216 -2 -54 -3 -50 -11 34 -8 94 -31
185 -49 195 -5 4 -9 10 -9 16 0 18 10 8 29 -29z m-1951 -23 c-17 -35 -23 -71
-29 -174 l-7 -130 2 135 c2 118 5 140 25 178 29 57 37 49 9 -9z m2004 -6 c14
-33 20 -73 23 -156 l4 -112 -9 103 c-9 106 -22 160 -47 201 -9 14 -10 21 -3
16 7 -4 21 -28 32 -52z m52 -24 c11 -37 16 -83 14 -163 l-1 -111 -7 126 c-5
107 -10 134 -32 178 -18 38 -21 47 -8 36 9 -8 25 -38 34 -66z m-2134 32 c-18
-36 -33 -112 -44 -216 -2 -22 -2 1 0 50 4 96 14 143 39 181 24 37 28 28 5 -15z
m40 6 c-19 -31 -36 -123 -43 -222 -3 -49 -3 -49 -5 10 -3 104 31 245 59 245 4
0 0 -15 -11 -33z m191 -119 c11 -20 10 -21 -3 -10 -22 18 -28 -3 -27 -91 1
-78 19 -144 39 -139 6 1 10 -2 8 -8 -7 -21 -23 -15 -37 15 -19 39 -27 204 -12
234 15 26 17 26 32 -1z m1722 -14 c11 -39 1 -165 -17 -209 -15 -36 -29 -44
-42 -23 -4 6 -3 8 3 5 18 -11 32 17 44 90 12 75 3 150 -19 146 -6 -2 -9 4 -5
13 8 22 26 12 36 -22z m-1720 -98 c-5 -31 -4 -32 34 -30 23 1 27 0 10 -3 -16
-2 -31 -11 -34 -19 -3 -8 -9 -14 -13 -14 -10 0 -20 75 -13 101 9 32 22 2 16
-35z m757 36 c0 -9 -5 -24 -10 -32 -8 -11 -9 -8 -4 13 6 25 4 27 -22 26 -16
-1 -40 -4 -54 -8 -14 -4 -41 -4 -61 -1 -44 8 -72 -2 -115 -39 -20 -18 -40 -28
-52 -24 -26 6 -79 -40 -87 -77 -8 -36 -7 -36 -61 -10 -56 28 -78 53 -70 83 5
22 12 25 82 31 43 3 103 6 134 6 41 0 61 5 71 16 20 25 40 29 149 31 88 1 100
-1 100 -15z m410 -11 c21 -15 44 -21 78 -21 27 0 84 -3 126 -7 60 -5 79 -10
87 -25 14 -26 -6 -57 -49 -75 -20 -8 -44 -21 -53 -29 -14 -13 -17 -10 -28 26
-13 45 -63 84 -93 74 -11 -3 -32 8 -56 31 -40 35 -41 35 -146 40 -105 4 -117
0 -94 -23 6 -6 9 -14 6 -18 -9 -8 -30 34 -24 45 3 5 53 8 112 6 89 -2 110 -5
134 -24z m525 -70 c-6 -23 -8 -24 -19 -9 -7 9 -28 19 -47 21 -27 4 -24 5 11 4
45 -1 45 -1 46 33 1 52 7 60 11 16 3 -22 1 -51 -2 -65z m-1642 72 c-7 -2 -19
-2 -25 0 -7 3 -2 5 12 5 14 0 19 -2 13 -5z m144 -88 c0 -11 -4 -12 -14 -4 -7
6 -13 13 -13 15 0 2 6 4 13 4 8 0 14 -7 14 -15z m1313 5 c0 -5 -4 -10 -10 -10
-5 0 -10 5 -10 10 0 6 5 10 10 10 6 0 10 -4 10 -10z m-653 -6 c-3 -3 -12 -4
-19 -1 -8 3 -5 6 6 6 11 1 17 -2 13 -5z m-901 -174 c11 -19 32 -42 47 -50 25
-14 28 -13 47 6 12 11 28 38 36 60 l15 39 -6 -40 c-26 -164 -136 -130 -179 55
-21 87 -19 112 3 30 9 -36 26 -81 37 -100z m665 120 c-33 -28 -70 -36 -87 -19
-12 13 -9 14 24 11 23 -2 45 3 57 12 29 22 34 19 6 -4z m239 16 c0 -11 -19
-15 -25 -6 -3 5 1 10 9 10 9 0 16 -2 16 -4z m270 -24 c36 5 40 -9 6 -18 -27
-6 -55 6 -77 32 -13 16 -12 16 13 0 17 -11 40 -17 58 -14z m631 -72 c-26 -84
-63 -132 -99 -128 -31 4 -60 41 -68 88 l-5 35 19 -42 c36 -74 87 -66 128 20
13 29 27 70 31 92 4 22 9 32 11 22 2 -10 -6 -49 -17 -87z m-1366 14 c16 -10
34 -14 51 -10 17 5 23 3 19 -4 -11 -18 -71 -11 -90 10 -22 24 -13 26 20 4z
m457 -72 c3 -46 1 -52 -16 -52 -16 0 -17 3 -8 12 7 7 13 39 13 73 2 65 7 51
11 -33z m459 68 c-25 -21 -66 -26 -91 -10 -10 7 -4 8 20 4 23 -4 42 0 55 10
29 23 44 19 16 -4z m-655 -65 c25 -19 52 -35 59 -35 8 0 16 -4 20 -9 12 -20
-59 9 -89 36 -17 15 -35 31 -40 35 -6 5 -7 8 -3 8 4 0 27 -16 53 -35z m403 9
c-26 -28 -60 -48 -99 -58 -15 -4 -10 2 15 15 22 12 53 32 68 45 38 32 47 30
16 -2z m-744 -34 c19 -8 19 -9 -2 -9 -12 -1 -25 4 -28 9 -7 12 2 12 30 0z
m1080 0 c-3 -5 -14 -10 -23 -9 -14 0 -13 2 3 9 27 11 27 11 20 0z m-710 -78
c-7 -8 -35 7 -35 18 0 6 7 6 20 -2 10 -7 17 -14 15 -16z m5 -42 c13 -8 13 -10
-2 -10 -9 0 -20 5 -23 10 -8 13 5 13 25 0z m325 0 c-3 -5 -12 -10 -18 -10 -7
0 -6 4 3 10 19 12 23 12 15 0z m-80 -80 c-3 -5 -12 -10 -18 -10 -7 0 -6 4 3
10 19 12 23 12 15 0z"/>
<path d="M639 1344 c-17 -36 -18 -48 -8 -60 10 -13 16 -6 36 42 27 68 27 64 7
64 -8 0 -24 -20 -35 -46z"/>
<path d="M705 1380 c-3 -5 -2 -10 4 -10 5 0 13 5 16 10 3 6 2 10 -4 10 -5 0
-13 -4 -16 -10z"/>
<path d="M1580 1381 c0 -5 7 -11 14 -14 10 -4 13 -1 9 9 -6 15 -23 19 -23 5z"/>
<path d="M1620 1381 c0 -4 10 -32 22 -60 14 -35 24 -49 31 -42 12 12 -9 92
-27 103 -15 10 -26 10 -26 -1z"/>
<path d="M955 1657 c-76 -29 -172 -94 -220 -149 -57 -67 -17 -61 58 9 63 58
135 100 215 124 23 6 42 18 42 26 0 18 -25 16 -95 -10z"/>
<path d="M1250 1667 c0 -9 17 -19 48 -27 70 -17 157 -67 220 -127 53 -49 82
-65 82 -44 0 23 -139 136 -204 167 -87 40 -146 53 -146 31z"/>
<path d="M1005 1626 c-65 -21 -137 -61 -188 -106 -63 -56 -53 -63 14 -10 56
44 121 80 182 99 20 7 37 17 37 22 0 5 -1 9 -2 8 -2 0 -21 -6 -43 -13z"/>
<path d="M1264 1622 c4 -7 14 -12 23 -12 29 0 140 -59 186 -100 26 -23 52 -40
59 -38 17 6 -99 97 -158 124 -62 29 -120 42 -110 26z"/>
<path d="M663 1072 c10 -51 47 -137 71 -167 38 -47 38 -25 1 34 -19 30 -40 78
-46 107 -12 54 -36 78 -26 26z"/>
<path d="M1616 1043 c-10 -34 -33 -85 -52 -113 -18 -27 -27 -50 -21 -50 28 0
102 157 95 201 -3 18 -9 8 -22 -38z"/>
<path d="M614 1073 c3 -10 8 -31 12 -48 13 -58 63 -145 83 -145 18 0 16 6 -15
66 -19 36 -37 83 -40 105 -5 30 -11 39 -26 39 -14 0 -18 -5 -14 -17z"/>
<path d="M1651 1044 c-13 -52 -45 -120 -69 -146 -14 -17 -13 -18 10 -18 19 0
29 10 46 43 48 96 64 167 38 167 -8 0 -18 -19 -25 -46z"/>
<path d="M556 827 c-14 -10 -17 -28 -17 -101 0 -94 9 -116 47 -116 42 0 54 24
54 114 0 68 -3 86 -18 99 -22 20 -42 21 -66 4z m49 -103 c0 -64 -3 -79 -15
-79 -12 0 -16 16 -18 69 -3 76 2 100 21 93 8 -2 12 -28 12 -83z"/>
<path d="M806 824 c-26 -26 -19 -67 19 -110 19 -21 34 -45 33 -53 -5 -23 -29
-25 -35 -2 -7 28 -33 27 -33 -2 0 -30 18 -47 50 -47 61 0 68 62 15 121 -38 42
-39 47 -26 68 10 16 31 6 31 -14 0 -9 6 -12 15 -9 31 12 3 64 -35 64 -10 0
-26 -7 -34 -16z"/>
<path d="M1418 829 c-15 -8 -18 -25 -18 -102 0 -99 7 -117 46 -117 37 0 54 26
54 81 0 46 -2 49 -25 49 -26 0 -33 -18 -14 -37 15 -15 7 -58 -11 -58 -12 0
-15 16 -15 80 0 64 3 80 15 80 8 0 16 -10 18 -22 5 -31 32 -30 32 1 0 14 -10
32 -22 40 -26 18 -36 19 -60 5z"/>
<path d="M420 720 c0 -91 3 -110 15 -110 11 0 15 12 15 45 0 40 2 45 23 45 34
0 47 19 47 65 0 51 -13 65 -62 65 l-38 0 0 -110z m68 41 c-2 -15 -10 -27 -20
-29 -14 -3 -18 4 -18 31 0 18 3 37 7 40 12 13 34 -16 31 -42z"/>
<path d="M662 723 l3 -108 36 -3 c57 -5 69 14 69 112 0 50 -5 87 -12 94 -7 7
-32 12 -55 12 l-44 0 3 -107z m76 -7 c-2 -58 -6 -71 -20 -74 -16 -3 -18 6 -18
76 0 84 5 99 27 80 10 -8 13 -31 11 -82z"/>
<path d="M913 818 c2 -7 16 -12 30 -12 15 1 27 -2 27 -6 0 -4 -13 -40 -30 -80
-42 -103 -41 -110 20 -110 38 0 50 4 50 15 0 10 -10 15 -30 15 -37 0 -37 7 0
95 17 38 30 75 30 82 0 9 -16 13 -51 13 -36 0 -49 -4 -46 -12z"/>
<path d="M1020 821 c0 -5 9 -11 20 -14 18 -5 20 -14 20 -101 0 -78 3 -96 15
-96 11 0 15 20 17 98 3 86 5 97 21 94 10 -2 17 3 17 13 0 12 -12 15 -55 15
-30 0 -55 -4 -55 -9z"/>
<path d="M1155 808 c-9 -40 -25 -152 -25 -175 0 -28 20 -30 27 -3 3 13 14 20
29 20 17 0 24 -6 24 -20 0 -11 7 -20 15 -20 18 0 18 16 5 96 -6 32 -13 74 -16
92 -4 26 -10 32 -29 32 -17 0 -26 -7 -30 -22z m39 -80 c6 -40 5 -48 -8 -48
-17 0 -21 35 -10 78 8 29 10 27 18 -30z"/>
<path d="M1260 720 c0 -90 3 -110 15 -110 11 0 15 18 17 78 l3 77 21 -75 c14
-51 26 -76 37 -78 15 -3 17 9 17 107 0 92 -3 111 -15 111 -11 0 -15 -13 -16
-57 l-1 -58 -15 58 c-13 49 -18 57 -39 57 -24 0 -24 -1 -24 -110z"/>
<path d="M1545 808 c-9 -40 -25 -152 -25 -175 0 -28 20 -30 27 -3 3 13 14 20
29 20 17 0 24 -6 24 -20 0 -11 7 -20 15 -20 18 0 18 16 5 96 -6 32 -13 74 -16
92 -4 26 -10 32 -29 32 -17 0 -26 -7 -30 -22z m39 -80 c6 -40 5 -48 -8 -48
-17 0 -22 52 -10 85 9 21 10 18 18 -37z"/>
<path d="M1710 721 c0 -90 3 -111 14 -111 10 0 16 13 18 42 3 38 6 43 36 50
33 9 33 9 30 66 l-3 57 -47 3 -48 3 0 -110z m70 44 c0 -28 -4 -35 -20 -35 -16
0 -20 7 -20 35 0 28 4 35 20 35 16 0 20 -7 20 -35z"/>
<path d="M1830 720 l0 -110 45 0 c33 0 45 4 45 15 0 9 -9 15 -25 15 -25 0 -25
0 -25 95 0 88 -1 95 -20 95 -19 0 -20 -7 -20 -110z"/>
<path d="M1663 643 c-18 -7 -16 -33 2 -33 8 0 15 9 15 20 0 11 -1 20 -2 19 -2
0 -9 -3 -15 -6z"/>
<path d="M360 540 l0 -40 800 0 800 0 0 40 0 40 -800 0 -800 0 0 -40z"/>
</g>
</svg>
