<?xml version="1.0" standalone="no"?>
<!DOCTYPE svg PUBLIC "-//W3C//DTD SVG 20010904//EN"
 "http://www.w3.org/TR/2001/REC-SVG-20010904/DTD/svg10.dtd">
<svg version="1.0" xmlns="http://www.w3.org/2000/svg"
 width="1024.000000pt" height="1024.000000pt" viewBox="0 0 1024.000000 1024.000000"
 preserveAspectRatio="xMidYMid meet">

<g transform="translate(0.000000,1024.000000) scale(0.100000,-0.100000)"
fill="#000000" stroke="none">
<path d="M2850 6413 c0 -5 -1 -86 -1 -180 0 -95 -2 -173 -4 -173 -2 0 -21 10
-42 23 -33 19 -52 22 -143 22 -94 0 -111 -3 -160 -27 -75 -37 -137 -100 -174
-178 -30 -62 -31 -70 -31 -195 0 -120 2 -134 27 -187 35 -75 106 -151 166
-176 106 -46 223 -37 312 23 l50 34 6 -40 7 -39 103 0 104 0 0 550 0 550 -110
0 c-60 0 -110 -3 -110 -7z m-49 -498 c49 -26 51 -34 47 -194 l-3 -151 -32 -31
c-26 -27 -41 -33 -87 -37 -70 -6 -96 1 -137 35 -91 77 -94 270 -6 351 54 50
149 62 218 27z"/>
<path d="M522 6388 c3 -7 88 -248 189 -535 l184 -523 145 0 145 0 179 523 c99
287 181 528 184 535 3 9 -25 12 -120 12 l-125 0 -83 -267 c-45 -148 -102 -329
-126 -404 -24 -75 -44 -145 -44 -156 0 -42 -15 -31 -26 19 -6 29 -62 223 -125
430 l-114 378 -134 0 c-102 0 -132 -3 -129 -12z"/>
<path d="M1660 6087 l-85 -22 -3 -87 -3 -86 63 20 c91 29 233 35 278 11 40
-21 60 -54 60 -103 l0 -35 -75 3 c-219 10 -367 -60 -394 -187 -27 -124 26
-227 139 -272 81 -32 243 -9 324 46 l35 24 7 -35 6 -34 95 0 95 0 -4 278 c-3
264 -4 279 -26 327 -39 85 -100 136 -195 161 -78 21 -217 17 -317 -9z m320
-486 c0 -54 -3 -62 -30 -85 -60 -50 -171 -59 -213 -17 -30 29 -28 85 4 116 28
29 84 42 177 44 l62 1 0 -59z"/>
<path d="M3425 6097 c-63 -21 -98 -42 -143 -87 -87 -87 -125 -219 -104 -361
40 -277 282 -395 627 -306 l50 13 3 74 c4 103 5 102 -70 79 -179 -56 -318 -27
-368 76 -38 79 -51 75 230 75 l250 0 5 23 c10 39 -14 187 -38 241 -35 75 -70
111 -144 148 -59 29 -77 33 -162 35 -60 2 -111 -2 -136 -10z m210 -169 c29
-23 55 -74 55 -108 0 -19 -6 -20 -145 -20 -141 0 -145 1 -145 21 0 31 38 93
68 112 41 25 132 23 167 -5z"/>
<path d="M4326 6094 c-22 -8 -54 -25 -71 -39 -35 -26 -45 -24 -45 12 0 23 -2
23 -105 23 l-105 0 0 -380 0 -380 115 0 115 0 0 279 0 279 40 16 c53 21 139
21 169 0 46 -33 51 -65 51 -329 l0 -245 110 0 110 0 0 279 0 279 40 16 c22 9
64 16 94 16 65 0 101 -24 116 -78 5 -21 10 -143 10 -274 l0 -238 110 0 110 0
0 264 c0 145 -5 288 -10 317 -25 130 -102 191 -248 198 -94 4 -146 -11 -220
-62 l-44 -29 -26 25 c-49 47 -109 67 -197 66 -44 0 -98 -7 -119 -15z"/>
<path d="M5533 6096 c-60 -19 -106 -50 -157 -107 -106 -118 -125 -329 -44
-482 58 -108 152 -168 295 -188 67 -10 97 -9 183 6 159 26 151 20 148 117 -2
68 -6 82 -18 79 -168 -44 -238 -51 -301 -29 -70 23 -105 63 -124 141 l-7 27
251 0 251 0 6 25 c3 13 1 62 -5 107 -20 156 -98 261 -223 302 -61 19 -195 20
-255 2z m212 -168 c29 -22 55 -74 55 -107 0 -19 -8 -20 -145 -23 -134 -3 -145
-2 -145 15 0 33 27 83 59 110 43 36 133 39 176 5z"/>
<path d="M6377 6099 c-105 -25 -210 -110 -254 -205 -94 -205 -22 -445 160
-533 112 -54 242 -61 390 -20 l37 10 0 89 c0 50 -1 90 -2 90 -2 0 -28 -7 -58
-15 -135 -36 -235 -11 -294 73 -53 75 -48 203 12 274 56 67 164 86 281 49 l61
-19 0 98 0 98 -63 11 c-74 13 -215 13 -270 0z"/>
<path d="M7968 6091 c-25 -10 -60 -28 -76 -40 l-30 -21 -7 30 -7 30 -99 0 -99
0 0 -380 0 -380 115 0 116 0 -1 278 -1 277 38 17 c44 20 121 23 158 6 51 -23
55 -45 55 -323 l0 -255 113 0 112 0 0 277 0 278 35 17 c43 21 131 23 169 4 48
-25 51 -47 51 -321 l0 -255 110 0 110 0 0 283 c0 308 -5 348 -55 413 -47 61
-95 79 -215 79 -91 0 -111 -3 -150 -24 -25 -13 -55 -32 -66 -43 -22 -19 -22
-19 -68 16 -26 19 -63 40 -84 46 -58 16 -171 11 -224 -9z"/>
<path d="M6822 5790 c3 -292 4 -307 25 -346 47 -88 122 -129 238 -128 85 0
132 15 189 59 l43 33 12 -39 12 -39 94 0 95 0 0 380 0 380 -110 0 -110 0 0
-269 0 -270 -57 -21 c-77 -29 -144 -24 -181 14 l-27 26 -5 263 -5 262 -108 0
-108 0 3 -305z"/>
<path d="M8365 5092 c-107 -37 -157 -99 -175 -218 -6 -39 -10 -77 -8 -85 2
-11 -13 -14 -70 -15 l-74 -1 -1 -82 -2 -81 73 0 72 0 0 -300 0 -300 115 0 115
0 0 300 0 300 120 0 120 0 0 86 0 87 -115 -5 c-64 -3 -118 -1 -121 3 -13 21
10 103 37 133 27 30 29 31 114 30 l86 0 -3 80 -3 81 -115 2 c-88 2 -127 -1
-165 -15z"/>
<path d="M8852 5100 c-43 -10 -70 -35 -81 -78 -14 -47 -4 -85 29 -117 49 -47
161 -44 205 5 38 42 28 143 -19 173 -28 18 -93 27 -134 17z"/>
<path d="M9260 5100 c-52 -13 -80 -51 -80 -110 0 -71 36 -111 108 -118 91 -8
152 35 152 109 0 47 -16 84 -44 103 -29 18 -93 26 -136 16z"/>
<path d="M3348 5084 c-15 -8 -32 -23 -38 -34 -13 -25 -13 -93 1 -124 32 -69
191 -76 234 -9 19 28 22 101 6 132 -7 11 -25 28 -41 36 -37 19 -127 19 -162
-1z"/>
<path d="M2292 4539 l3 -530 115 0 115 -1 5 224 5 223 198 0 197 0 0 -222 0
-223 115 0 115 0 0 530 0 530 -115 0 -115 0 0 -210 0 -210 -200 0 -200 0 0
210 0 210 -120 0 -120 0 2 -531z"/>
<path d="M6070 4870 l0 -100 -62 0 -63 0 0 -80 0 -80 57 0 57 0 3 -232 c3
-216 5 -236 25 -273 45 -84 109 -118 223 -118 41 0 98 5 127 12 l52 13 3 84
c3 81 2 85 -17 79 -37 -12 -114 -18 -140 -11 -46 12 -55 53 -55 261 l0 185
105 0 105 0 0 80 0 80 -105 0 -105 0 0 100 0 100 -105 0 -105 0 0 -100z"/>
<path d="M4033 4786 c-23 -7 -62 -25 -87 -40 -24 -14 -47 -26 -50 -26 -3 0 -6
16 -6 36 0 29 -3 35 -16 30 -9 -3 -54 -6 -100 -6 l-84 0 0 -540 0 -540 110 0
110 0 0 174 0 175 65 -30 c54 -26 77 -31 143 -31 107 -1 182 32 256 113 81 87
100 144 100 294 0 102 -3 129 -23 178 -30 77 -114 167 -183 197 -65 28 -175
36 -235 16z m120 -185 c24 -15 45 -41 64 -79 48 -97 34 -242 -30 -310 -54 -58
-146 -71 -231 -33 l-46 20 0 180 0 180 33 25 c18 14 44 30 57 35 37 16 113 7
153 -18z"/>
<path d="M4829 4786 c-106 -28 -201 -113 -240 -215 -30 -77 -37 -215 -15 -301
33 -127 121 -221 246 -261 85 -27 234 -29 348 -4 l82 18 0 85 c0 83 0 84 -22
78 -222 -63 -365 -40 -417 67 -40 82 -54 77 240 77 l262 0 -5 98 c-8 151 -52
245 -148 310 -85 58 -222 78 -331 48z m190 -159 c37 -19 63 -60 68 -111 l6
-46 -153 0 -153 0 6 40 c11 81 68 130 152 130 28 0 61 -6 74 -13z"/>
<path d="M7429 4786 c-69 -20 -146 -65 -186 -109 -107 -119 -130 -334 -53
-493 53 -109 150 -174 288 -194 198 -28 376 57 448 213 27 58 29 70 29 192 0
127 -1 132 -33 197 -40 82 -111 149 -190 179 -71 27 -233 35 -303 15z m219
-183 c71 -53 103 -197 68 -315 -39 -136 -190 -180 -281 -83 -40 41 -55 94 -55
187 0 114 27 177 95 220 40 25 133 21 173 -9z"/>
<path d="M5779 4781 c-36 -12 -69 -30 -111 -63 l-38 -29 -6 40 -7 41 -98 0
-99 0 0 -380 0 -380 115 0 115 0 0 248 c0 283 -1 278 84 318 35 16 69 24 109
24 l57 0 0 95 0 95 -47 -1 c-27 0 -60 -4 -74 -8z"/>
<path d="M6960 4781 c-41 -13 -88 -39 -124 -71 l-34 -30 -6 45 -7 45 -90 0
-89 0 0 -380 0 -380 110 0 110 0 0 240 0 240 35 39 c41 45 105 71 177 71 l48
0 0 95 0 95 -52 -1 c-29 0 -64 -4 -78 -8z"/>
<path d="M3320 4395 l0 -385 113 0 112 0 -2 382 -2 383 -111 3 -110 3 0 -386z"/>
<path d="M8790 4778 c0 -2 -1 -175 -3 -386 l-2 -382 113 0 112 0 0 385 0 385
-110 0 c-60 0 -110 -1 -110 -2z"/>
<path d="M9200 4395 l0 -385 110 0 110 0 0 385 0 385 -110 0 -110 0 0 -385z"/>
</g>
</svg>
