<?xml version="1.0" standalone="no"?>
<!DOCTYPE svg PUBLIC "-//W3C//DTD SVG 20010904//EN"
 "http://www.w3.org/TR/2001/REC-SVG-20010904/DTD/svg10.dtd">
<svg version="1.0" xmlns="http://www.w3.org/2000/svg"
 width="1024.000000pt" height="1024.000000pt" viewBox="0 0 1024.000000 1024.000000"
 preserveAspectRatio="xMidYMid meet">

<g transform="translate(0.000000,1024.000000) scale(0.100000,-0.100000)"
fill="#000000" stroke="none">
<path d="M900 5905 l0 -755 171 2 170 3 -1 304 c0 168 2 303 4 300 3 -3 48
-140 100 -304 l94 -300 191 -3 191 -2 -29 77 c-193 529 -254 698 -254 707 0 6
59 168 131 360 73 192 132 353 132 358 0 5 -78 7 -177 6 l-178 -3 -100 -290
-100 -290 -3 293 -2 292 -170 0 -170 0 0 -755z"/>
<path d="M2040 6651 c-70 -15 -134 -63 -168 -126 -15 -27 -17 -91 -20 -593 -2
-384 1 -575 8 -603 14 -52 82 -126 140 -153 40 -19 67 -21 262 -24 139 -2 237
0 273 8 68 14 131 60 165 120 l25 45 0 585 c0 646 3 610 -64 677 -64 64 -82
68 -346 70 -132 1 -256 -2 -275 -6z m325 -306 l25 -24 0 -418 c0 -490 5 -463
-94 -463 -105 0 -97 -38 -97 458 0 238 3 437 7 443 10 17 46 28 92 28 33 1 49
-5 67 -24z"/>
<path d="M2840 5905 l0 -755 165 0 165 0 0 353 c0 193 4 345 8 337 5 -8 57
-167 117 -352 l109 -338 153 0 153 0 0 755 0 755 -160 0 -160 0 0 -367 c0
-201 -2 -364 -5 -362 -2 3 -38 117 -80 254 -42 138 -92 301 -111 363 l-35 112
-160 0 -159 0 0 -755z"/>
<path d="M3997 6646 c-60 -17 -115 -60 -146 -116 l-25 -44 2 -578 c2 -371 6
-588 13 -606 18 -48 59 -92 112 -120 52 -27 54 -27 279 -30 262 -4 306 3 377
65 73 62 81 90 81 296 l0 177 -170 0 -170 0 0 -103 c0 -133 -8 -147 -89 -147
-97 0 -91 -29 -91 461 0 338 3 429 13 443 9 12 31 20 63 23 40 4 54 1 77 -17
26 -21 27 -23 27 -131 l0 -109 170 0 170 0 0 180 c0 158 -2 185 -19 218 -26
51 -77 97 -136 124 -47 21 -64 23 -270 25 -158 2 -233 -1 -268 -11z"/>
<path d="M4800 5905 l0 -755 355 0 356 0 -3 153 -3 152 -177 3 -178 2 0 150 0
150 160 0 160 0 0 140 0 140 -160 0 -160 0 0 155 0 155 180 0 180 0 0 155 0
155 -355 0 -355 0 0 -755z"/>
<path d="M5610 5906 l0 -756 165 0 165 0 0 249 0 249 173 4 c164 3 175 4 228
31 68 33 105 81 119 156 13 70 13 572 0 642 -13 68 -51 116 -116 149 l-49 25
-342 3 -343 3 0 -755z m494 448 c13 -13 16 -45 16 -198 0 -128 -4 -186 -12
-194 -7 -7 -43 -12 -90 -12 l-78 0 0 210 0 210 74 0 c54 0 79 -4 90 -16z"/>
<path d="M6737 6646 c-60 -17 -115 -60 -144 -116 l-23 -43 0 -571 c0 -375 4
-584 11 -610 6 -22 29 -56 54 -82 69 -68 110 -76 383 -72 l227 3 55 31 c38 22
64 46 85 79 l30 48 3 189 4 188 -171 0 -171 0 0 -108 c0 -130 -7 -142 -87
-142 -87 0 -83 -25 -83 461 0 335 3 429 13 443 19 26 99 33 132 12 24 -16 25
-20 25 -131 l0 -115 170 0 170 0 0 173 c0 94 -5 189 -11 210 -14 50 -68 109
-127 138 -44 22 -59 24 -272 26 -163 2 -238 -1 -273 -11z"/>
<path d="M7960 6062 c0 -452 -3 -601 -12 -610 -7 -7 -30 -12 -53 -12 -23 0
-46 5 -53 12 -8 8 -12 54 -12 140 l0 128 -162 -2 -163 -3 1 -195 c1 -221 6
-242 73 -303 66 -59 119 -69 349 -65 197 3 197 3 251 33 29 16 64 44 78 62 53
69 53 76 53 770 l0 643 -175 0 -175 0 0 -598z"/>
<path d="M8566 6538 c-10 -68 -38 -251 -62 -408 -49 -312 -144 -956 -144 -971
0 -5 74 -9 175 -9 136 0 175 3 175 13 0 7 7 67 15 132 8 66 15 121 15 123 0 1
51 1 113 0 l112 -3 14 -132 14 -133 173 0 c96 0 174 4 174 8 0 12 -98 648
-170 1099 -33 210 -60 386 -60 392 0 8 -82 11 -263 11 l-263 0 -18 -122z m320
-520 c18 -145 34 -272 34 -283 0 -19 -5 -20 -76 -17 -72 3 -75 5 -71 25 3 12
20 140 39 284 18 144 34 260 36 258 2 -2 19 -122 38 -267z"/>
<path d="M900 4335 l0 -535 115 0 115 0 0 220 0 220 70 0 70 0 0 -220 0 -220
115 0 115 0 0 535 0 535 -115 0 -115 0 0 -210 0 -210 -70 0 -70 0 0 210 0 210
-115 0 -115 0 0 -535z"/>
<path d="M1580 4868 c0 -2 -1 -243 -3 -536 l-2 -532 113 0 112 0 0 535 0 535
-110 0 c-60 0 -110 -1 -110 -2z"/>
<path d="M1880 4336 l0 -536 115 0 115 0 0 190 0 190 130 0 c151 0 177 9 206
67 17 34 19 63 19 280 0 230 -1 243 -21 270 -12 15 -36 37 -55 48 -31 18 -55
20 -271 23 l-238 4 0 -536z m355 189 l0 -140 -62 -3 -63 -3 0 146 0 146 63 -3
62 -3 0 -140z"/>
<path d="M2530 4335 l0 -535 240 0 240 0 0 105 0 105 -125 0 -125 0 0 115 0
115 115 0 115 0 0 95 0 95 -115 0 -115 0 0 115 0 115 125 0 125 0 0 105 0 105
-240 0 -240 0 0 -535z"/>
<path d="M3088 4864 c-5 -4 -8 -245 -8 -536 l0 -528 121 0 121 0 -4 200 -4
200 26 0 c23 0 27 -6 48 -87 13 -49 37 -139 54 -200 l30 -113 120 0 c109 0
119 2 115 18 -9 30 -117 381 -122 395 -4 8 7 17 27 25 63 22 68 44 68 284 0
203 -1 215 -23 253 -14 24 -40 50 -67 65 -44 24 -52 25 -270 28 -124 2 -228 0
-232 -4z m362 -324 c3 -69 2 -133 -3 -142 -6 -15 -20 -18 -72 -18 l-65 0 0
145 0 146 68 -3 67 -3 5 -125z"/>
<path d="M3737 4863 c-2 -5 -5 -52 -6 -105 l-2 -98 90 0 91 0 0 -430 0 -430
115 0 115 0 0 430 0 430 85 0 85 0 0 105 0 105 -284 0 c-157 0 -287 -3 -289
-7z"/>
<path d="M4380 4336 l0 -536 110 0 110 0 0 201 0 200 27 -3 c26 -3 28 -8 78
-200 l50 -198 122 0 121 0 -18 58 c-9 31 -39 126 -65 210 -26 85 -45 155 -43
156 1 1 15 7 30 14 59 25 63 43 63 297 0 222 -1 231 -22 261 -45 63 -72 69
-330 72 l-233 4 0 -536z m355 189 l0 -140 -67 -3 -68 -3 0 146 0 146 68 -3 67
-3 0 -140z"/>
<path d="M5177 4856 c-69 -25 -102 -62 -117 -131 -8 -34 -11 -174 -8 -430 3
-371 4 -381 25 -415 12 -20 40 -46 61 -58 37 -21 52 -22 229 -22 181 0 192 1
224 23 18 12 44 38 56 56 l23 34 0 416 0 416 -25 37 c-14 20 -45 46 -72 59
-43 22 -63 24 -203 27 -113 1 -165 -2 -193 -12z m247 -202 c14 -13 16 -57 16
-323 0 -249 -3 -311 -14 -320 -15 -13 -107 -18 -125 -7 -16 10 -15 638 1 654
18 18 103 15 122 -4z"/>
<path d="M5750 4335 l0 -535 115 0 115 0 0 205 0 205 116 0 115 0 -3 108 -3
107 -112 3 -113 3 0 114 0 115 120 0 120 0 0 105 0 105 -235 0 -235 0 0 -535z"/>
<path d="M6290 4335 l0 -535 115 0 115 0 0 535 0 535 -115 0 -115 0 0 -535z"/>
<path d="M6743 4861 c-51 -13 -94 -44 -114 -81 -18 -32 -19 -64 -19 -441 0
-405 0 -406 23 -450 15 -27 38 -52 63 -66 36 -21 52 -23 207 -23 183 0 212 6
259 56 41 44 48 75 48 202 l0 117 -115 0 -115 0 0 -68 c0 -93 -9 -107 -68
-107 -27 0 -53 5 -60 12 -9 9 -12 95 -12 325 0 299 1 313 19 323 29 15 87 12
105 -6 12 -11 16 -36 16 -95 l0 -79 115 0 115 0 0 122 c0 150 -16 193 -88 236
-45 26 -53 27 -197 29 -82 1 -164 -2 -182 -6z"/>
<path d="M7300 4775 l0 -95 140 0 c77 0 140 -4 140 -8 0 -10 -182 -443 -251
-595 -46 -104 -49 -116 -49 -194 l0 -83 275 0 275 0 0 95 0 95 -150 0 -150 0
26 58 c14 31 79 181 144 333 l119 277 2 103 2 104 -262 3 -261 2 0 -95z"/>
<path d="M7920 4335 l0 -535 110 0 111 0 -3 270 c-2 149 0 270 5 270 4 0 7 -5
7 -12 0 -6 37 -128 82 -270 l82 -258 115 0 116 0 -2 532 -3 533 -110 3 -110 3
-2 -273 -3 -272 -81 270 -82 269 -116 3 -116 3 0 -536z"/>
<path d="M8776 4833 c-3 -21 -40 -254 -81 -518 -42 -264 -77 -488 -79 -497 -4
-16 7 -18 119 -18 l123 0 12 100 12 100 83 0 82 0 6 -37 c3 -21 9 -66 13 -100
l7 -63 123 0 c124 0 124 0 119 23 -2 12 -34 207 -69 432 -36 226 -73 456 -82
513 l-17 102 -182 0 -182 0 -7 -37z m218 -383 c14 -107 28 -207 31 -222 4 -28
4 -28 -55 -28 -72 0 -69 -22 -35 236 14 104 25 195 25 203 0 48 12 -19 34
-189z"/>
</g>
</svg>
