<?xml version="1.0" standalone="no"?>
<!DOCTYPE svg PUBLIC "-//W3C//DTD SVG 20010904//EN"
 "http://www.w3.org/TR/2001/REC-SVG-20010904/DTD/svg10.dtd">
<svg version="1.0" xmlns="http://www.w3.org/2000/svg"
 width="1280.000000pt" height="745.000000pt" viewBox="0 0 1280.000000 745.000000"
 preserveAspectRatio="xMidYMid meet">

<g transform="translate(0.000000,745.000000) scale(0.100000,-0.100000)"
fill="#000000" stroke="none">
<path d="M3404 6683 c4 -93 9 -266 12 -385 l6 -218 554 0 554 0 0 -1665 0
-1665 430 0 430 0 0 1258 c0 692 3 1442 7 1665 l6 407 475 0 475 0 -7 92 c-3
50 -6 223 -6 385 l0 293 -1471 0 -1470 0 5 -167z"/>
<path d="M7314 6831 c-151 -41 -280 -109 -381 -204 -165 -154 -248 -339 -274
-606 -16 -157 -6 -622 14 -712 36 -158 120 -304 241 -416 126 -119 282 -216
681 -428 465 -247 565 -315 620 -430 29 -59 30 -62 28 -226 -1 -147 -3 -172
-22 -215 -28 -62 -45 -80 -106 -113 -49 -26 -53 -26 -251 -26 l-200 0 -59 30
c-105 54 -134 144 -135 423 l0 102 -409 0 -409 0 -6 -62 c-7 -69 8 -356 25
-482 23 -171 105 -335 233 -461 173 -172 360 -247 661 -265 333 -20 650 -9
850 31 186 38 286 91 426 229 90 87 102 104 153 210 91 186 98 226 103 560 9
508 -21 663 -159 837 -129 163 -280 266 -793 540 -342 184 -365 197 -450 254
-152 102 -187 164 -193 344 -7 205 21 285 117 328 40 19 69 22 228 25 220 5
271 -6 326 -67 50 -55 59 -93 64 -282 l5 -166 397 -7 c218 -3 407 -9 421 -12
l25 -5 -3 163 c-3 227 -19 442 -37 513 -21 81 -82 207 -138 282 -94 127 -272
240 -472 300 l-90 27 -480 3 c-444 2 -485 1 -551 -16z"/>
<path fill="#88a494" d="M2566 5659 l-26 -20 0 -1090 0 -1090 23 -23 c21 -20 38 -25 121 -31
53 -4 144 -4 202 0 87 6 109 11 129 29 l24 21 3 1082 3 1082 -29 30 -30 31
-197 0 c-183 0 -198 -1 -223 -21z"/>
<path fill="#88a494" d="M9801 5654 l-31 -26 0 -1082 0 -1082 31 -30 30 -29 189 0 c176 0 190
1 217 21 l28 21 3 1096 2 1095 -34 21 c-31 19 -48 21 -219 21 -185 0 -186 0
-216 -26z"/>
<path fill="#88a494" d="M2094 5346 c-17 -8 -35 -22 -39 -32 -5 -11 -11 -138 -13 -284 l-4
-265 -98 3 c-58 2 -107 -1 -119 -7 -31 -17 -41 -73 -41 -232 0 -151 9 -203 38
-214 9 -4 63 -9 119 -12 l102 -6 3 -253 c4 -325 -15 -298 218 -302 l170 -3 0
810 0 811 -152 0 c-106 -1 -163 -5 -184 -14z"/>
<path fill="#88a494" d="M10380 4642 c0 -395 3 -760 6 -810 l7 -92 157 0 c118 0 161 3 175 14
17 12 20 32 26 148 4 73 8 192 8 264 l1 131 107 5 c104 5 107 5 135 37 l28 31
0 171 0 171 -29 29 c-29 28 -32 29 -134 29 l-106 0 -3 265 -3 265 -28 27 c-27
28 -28 28 -187 31 l-160 4 0 -720z"/>
<path fill="#88a494" d="M3150 4550 l0 -200 303 0 c342 0 670 10 687 20 15 9 26 224 16 302
l-7 56 -142 6 c-78 3 -303 8 -499 11 l-358 6 0 -201z"/>
<path fill="#88a494" d="M9188 4698 c63 -93 96 -180 117 -310 l6 -38 174 0 175 0 0 195 0 195
-250 0 -251 0 29 -42z"/>
<path fill="#ffffff" d="M6235 2611 c-139 -34 -215 -150 -201 -304 13 -143 60 -187 276 -262
160 -56 191 -82 206 -172 7 -45 -10 -120 -34 -147 -44 -49 -155 -66 -218 -33
-30 15 -89 75 -109 112 -10 17 -13 17 -61 1 -71 -23 -88 -38 -80 -67 13 -50
73 -116 132 -145 50 -24 72 -28 171 -32 171 -7 263 29 319 124 49 83 45 263
-7 336 -28 39 -91 74 -235 128 -68 26 -135 55 -149 64 -57 37 -77 141 -39 206
29 50 66 73 127 78 69 5 107 -14 153 -78 20 -28 42 -50 51 -50 8 0 37 10 64
21 59 26 62 44 20 112 -35 54 -88 92 -151 106 -51 12 -190 13 -235 2z"/>
<path fill="#ffffff" d="M1080 2550 l0 -60 120 0 120 0 0 -460 0 -460 80 0 80 0 0 460 0 460
58 0 c31 0 87 3 125 7 l67 6 0 53 0 54 -325 0 -325 0 0 -60z"/>
<path fill="#ffffff" d="M10980 2090 l0 -520 75 0 75 0 0 68 c0 95 13 130 70 193 60 65 48 74
156 -123 l75 -138 85 0 86 0 -35 63 c-19 34 -73 132 -121 217 -47 84 -86 162
-86 171 0 10 47 79 105 153 l104 136 -87 0 -87 -1 -115 -160 c-63 -88 -121
-165 -127 -171 -10 -8 -13 20 -13 138 0 82 -3 227 -7 322 l-6 172 -74 0 -73 0
0 -520z"/>
<path fill="#ffffff" d="M11690 2540 l0 -60 85 0 85 0 0 60 0 60 -85 0 -85 0 0 -60z"/>
<path fill="#ffffff" d="M6850 2421 l0 -110 -32 -3 c-31 -3 -33 -5 -36 -47 -3 -47 7 -61 44
-61 21 0 21 -5 28 -242 4 -134 12 -260 17 -281 5 -21 23 -52 38 -70 28 -30 32
-32 132 -37 57 -3 105 -6 105 -6 1 1 -1 27 -3 59 l-5 57 -38 0 c-22 0 -47 8
-61 19 l-24 19 0 239 0 238 65 5 65 5 3 52 3 52 -68 3 -68 3 -3 108 -3 107
-79 0 -80 0 0 -109z"/>
<path fill="#ffffff" d="M1975 2311 c-70 -18 -118 -56 -150 -119 -23 -47 -37 -197 -30 -322 8
-148 20 -186 75 -240 58 -59 109 -74 227 -68 99 5 153 26 196 78 43 50 49 95
45 324 -3 226 -7 245 -60 292 -46 43 -89 57 -183 60 -49 2 -103 0 -120 -5z
m178 -142 l37 -30 0 -172 c0 -95 -5 -189 -10 -209 -32 -114 -193 -101 -220 17
-13 54 -12 281 0 327 27 94 120 127 193 67z"/>
<path fill="#ffffff" d="M2750 2308 c-37 -11 -46 -11 -157 -2 l-73 6 0 -371 0 -371 75 0 75 0
0 168 c0 93 3 224 7 291 l6 122 36 25 c75 51 155 20 172 -66 4 -25 8 -146 9
-270 0 -124 3 -235 6 -247 6 -21 12 -23 79 -23 l73 0 4 273 c2 206 6 278 17
297 37 68 112 81 174 29 l37 -30 0 -285 0 -284 80 0 80 0 0 213 c-1 116 -5
256 -9 310 -7 85 -12 103 -37 139 -43 60 -75 81 -138 86 -84 7 -140 -6 -195
-43 -48 -32 -50 -32 -67 -14 -47 52 -161 73 -254 47z"/>
<path fill="#ffffff" d="M3788 2308 c-43 -11 -112 -68 -133 -109 -18 -33 -11 -38 63 -59 41
-11 45 -10 79 20 70 62 132 67 182 16 29 -30 34 -43 38 -99 l6 -65 -124 -4
c-100 -3 -132 -8 -164 -25 -81 -43 -115 -104 -115 -210 1 -89 25 -143 81 -180
37 -24 53 -28 141 -31 54 -3 150 -1 213 3 l115 7 0 281 c0 159 -5 298 -10 318
-13 47 -94 124 -146 138 -47 13 -175 13 -226 -1z m230 -496 c-6 -96 -17 -127
-48 -137 -32 -10 -137 -7 -158 4 -51 27 -55 141 -6 192 27 28 31 29 122 29
l95 0 -5 -88z"/>
<path fill="#ffffff" d="M4461 2306 c-87 -29 -140 -108 -141 -210 0 -119 50 -163 235 -206
146 -34 179 -64 155 -143 -14 -48 -59 -77 -118 -77 -52 0 -73 10 -129 61 -24
22 -51 39 -60 39 -26 0 -97 -43 -101 -61 -5 -27 54 -95 105 -120 43 -22 61
-24 178 -24 114 0 135 3 170 22 76 40 115 105 115 189 0 139 -52 184 -265 230
-116 25 -155 70 -125 148 12 32 58 56 109 56 32 0 49 -8 86 -40 25 -22 56 -40
68 -40 33 1 91 33 95 52 5 27 -34 75 -86 105 -41 24 -58 28 -147 30 -66 2
-115 -2 -144 -11z"/>
<path fill="#ffffff" d="M7439 2305 c-60 -19 -123 -83 -146 -149 -14 -41 -17 -86 -18 -231 0
-169 2 -183 23 -228 46 -91 133 -138 265 -139 78 -1 135 13 179 44 27 19 78
94 78 115 0 6 -30 19 -66 29 l-67 18 -19 -27 c-10 -14 -35 -36 -54 -47 -85
-53 -193 34 -194 158 l0 42 210 0 210 0 -5 53 c-2 28 -7 83 -10 121 -11 134
-76 224 -177 245 -66 15 -153 13 -209 -4z m195 -135 c28 -34 46 -87 46 -137
l0 -33 -130 0 -130 0 0 28 c0 51 22 106 55 139 29 29 40 33 83 33 44 0 54 -4
76 -30z"/>
<path fill="#ffffff" d="M9176 2308 c-44 -12 -151 -108 -144 -130 2 -7 28 -21 57 -31 49 -16
56 -16 75 -2 76 55 96 66 131 67 32 1 43 -4 72 -35 30 -34 33 -42 33 -102 l0
-65 -90 0 c-164 0 -234 -31 -282 -123 -41 -82 -22 -225 39 -279 52 -47 161
-59 401 -42 l92 7 0 112 c0 61 -3 201 -7 311 l-6 199 -51 51 c-38 37 -64 54
-98 62 -56 14 -168 14 -222 0z m224 -497 c0 -130 -20 -148 -158 -142 -52 2
-82 39 -82 101 0 102 32 129 153 130 l87 0 0 -89z"/>
<path fill="#ffffff" d="M10010 2311 c-14 -5 -40 -15 -57 -24 -39 -21 -53 -21 -53 -3 0 20
-23 26 -96 26 l-64 0 0 -370 0 -370 79 0 80 0 3 264 c3 295 3 292 79 345 30
20 42 22 105 18 l72 -5 16 42 c21 54 20 63 -3 76 -22 11 -124 12 -161 1z"/>
<path fill="#ffffff" d="M10411 2306 c-119 -39 -177 -186 -120 -304 27 -54 79 -81 214 -112
110 -25 151 -48 160 -89 8 -39 -20 -101 -55 -118 -31 -16 -104 -17 -133 -2
-12 7 -41 29 -64 50 -24 22 -51 39 -60 39 -26 0 -97 -43 -101 -61 -5 -27 54
-95 104 -119 68 -32 237 -40 313 -15 98 32 150 102 151 201 0 136 -48 180
-243 224 -112 25 -157 54 -157 100 0 70 43 110 119 110 32 0 49 -8 86 -40 25
-22 56 -40 68 -40 33 1 91 33 95 52 5 27 -34 75 -86 105 -41 24 -58 28 -147
30 -66 2 -115 -2 -144 -11z"/>
<path fill="#ffffff" d="M5020 2250 l0 -60 150 0 c85 0 150 -4 150 -9 0 -5 -60 -105 -134
-223 -158 -252 -174 -284 -183 -343 l-6 -45 262 0 261 0 0 54 0 54 -154 3
c-85 2 -158 7 -162 11 -4 4 50 102 120 217 144 238 186 322 186 369 l0 32
-245 0 -245 0 0 -60z"/>
<path fill="#ffffff" d="M7953 2288 c4 -13 48 -179 99 -370 l93 -348 71 0 70 0 58 205 c33
113 63 208 68 211 12 8 29 -40 84 -238 l49 -178 71 0 c66 0 72 2 76 23 3 12
46 174 97 360 50 186 89 343 86 348 -9 14 -131 11 -143 -3 -5 -7 -26 -87 -47
-178 -44 -194 -63 -260 -73 -260 -10 0 -40 95 -91 284 -23 82 -42 151 -45 153
-2 2 -30 5 -61 6 l-58 2 -48 -175 c-65 -239 -81 -290 -89 -290 -7 0 -40 132
-86 343 l-28 127 -79 0 c-77 0 -79 -1 -74 -22z"/>
<path fill="#ffffff" d="M11690 1940 l0 -370 85 0 85 0 0 370 0 370 -85 0 -85 0 0 -370z"/>
<path fill="#2e5f6d" d="M4448 1213 l-118 -4 0 -234 0 -235 139 0 139 0 4 35 4 35 -103 0
-103 0 0 65 0 65 80 0 80 0 0 35 0 35 -80 0 -80 0 0 65 0 65 100 0 100 0 0 40
c0 35 -3 40 -22 38 -13 -1 -76 -4 -140 -5z"/>
<path fill="#2e5f6d" d="M7054 1209 c-17 -5 -43 -21 -58 -35 -21 -22 -26 -36 -26 -79 0 -69
19 -92 120 -144 44 -23 84 -50 90 -61 15 -28 12 -55 -8 -73 -35 -32 -98 -18
-135 30 -17 21 -65 32 -80 17 -12 -12 16 -66 47 -89 71 -54 178 -51 234 8 42
45 48 82 20 137 -19 37 -35 51 -99 85 -97 51 -109 62 -109 94 0 38 17 51 65
51 31 0 47 -6 65 -25 16 -17 34 -25 57 -25 31 0 34 2 27 23 -25 79 -112 115
-210 86z"/>
<path fill="#2e5f6d" d="M7527 1191 c-69 -45 -87 -89 -87 -217 0 -86 3 -107 23 -144 34 -65
91 -93 179 -88 72 4 103 20 142 72 19 25 21 42 21 166 0 125 -2 141 -21 167
-32 43 -78 65 -147 70 -56 4 -66 2 -110 -26z m154 -57 c40 -20 59 -68 59 -146
0 -123 -35 -178 -112 -178 -76 0 -127 88 -114 198 7 57 37 127 58 135 27 11
80 6 109 -9z"/>
<path fill="#2e5f6d" d="M8313 1213 l-33 -4 0 -150 c0 -93 -4 -148 -10 -144 -5 3 -39 56 -76
118 -101 169 -108 177 -155 177 l-39 0 0 -235 0 -235 40 0 40 0 1 53 c1 28 4
101 8 162 l6 109 79 -134 c92 -158 119 -190 158 -190 l28 0 0 240 c0 132 -3
239 -7 238 -5 0 -23 -3 -40 -5z"/>
<path fill="#2e5f6d" d="M8675 1208 c-36 -97 -141 -455 -135 -461 4 -5 20 -7 36 -5 25 3 31
10 46 58 l18 55 90 -3 90 -3 10 -37 c5 -20 13 -42 18 -49 9 -14 82 -29 82 -16
0 13 -145 447 -154 461 -10 16 -95 15 -101 0z m99 -213 c8 -32 12 -63 9 -68
-5 -9 -108 -5 -118 4 -3 4 30 122 51 179 8 21 38 -39 58 -115z"/>
<path fill="#2e5f6d" d="M2332 1178 c3 -33 4 -33 61 -36 l57 -3 0 -199 0 -200 40 0 40 0 0
200 0 199 63 3 c62 3 62 3 65 36 l3 32 -166 0 -166 0 3 -32z"/>
<path fill="#2e5f6d" d="M2820 975 l0 -235 40 0 39 0 3 92 c3 81 5 93 21 96 27 5 55 -24 89
-93 17 -33 37 -68 46 -77 17 -20 82 -25 82 -7 0 6 -18 44 -39 83 -56 103 -58
112 -22 130 36 19 55 71 48 133 -9 85 -62 112 -224 113 l-83 0 0 -235z m185
160 c92 -38 50 -135 -57 -135 l-48 0 0 75 0 75 35 0 c20 0 51 -7 70 -15z"/>
<path fill="#2e5f6d" d="M3320 975 l0 -235 140 0 140 0 0 35 0 35 -100 0 -100 0 0 65 0 65 80
0 80 0 0 35 0 35 -80 0 -80 0 0 65 0 65 100 0 100 0 0 35 0 35 -140 0 -140 0
0 -235z"/>
<path fill="#2e5f6d" d="M3780 975 l0 -235 41 0 42 0 -5 138 c-5 143 -1 185 18 160 6 -7 48
-74 92 -149 45 -75 89 -140 98 -143 9 -3 27 -6 40 -6 l24 0 0 235 0 235 -34 0
c-22 0 -36 -6 -40 -16 -3 -9 -6 -76 -6 -150 0 -74 -3 -134 -7 -134 -5 0 -41
56 -81 125 -89 150 -111 175 -152 175 l-30 0 0 -235z"/>
<path fill="#2e5f6d" d="M4780 976 l0 -236 40 0 40 0 0 95 c0 95 0 95 25 95 32 0 53 -22 95
-96 45 -80 58 -94 92 -94 38 0 36 13 -14 115 l-42 85 36 35 c39 39 51 74 39
126 -19 86 -45 100 -192 106 l-119 6 0 -237z m192 158 c52 -27 61 -71 23 -109
-20 -21 -34 -25 -80 -25 l-55 0 0 80 0 80 43 -6 c23 -4 54 -13 69 -20z"/>
<path fill="#2e5f6d" d="M5540 976 l0 -236 40 0 40 0 0 48 c0 26 3 63 6 83 l6 36 76 11 c44 6
86 18 101 30 77 57 71 195 -12 239 -23 12 -63 18 -144 21 l-113 4 0 -236z
m182 164 c42 -12 58 -34 58 -77 0 -56 -52 -93 -132 -93 l-28 0 0 83 c0 46 3
87 7 90 9 10 53 8 95 -3z"/>
<path fill="#2e5f6d" d="M6020 975 l0 -235 140 0 140 0 0 35 0 35 -100 0 -100 0 0 65 0 65 80
0 80 0 0 35 0 35 -80 0 -80 0 0 65 0 65 100 0 100 0 0 35 0 35 -140 0 -140 0
0 -235z"/>
<path fill="#2e5f6d" d="M6470 976 l0 -236 40 0 40 0 0 90 c0 72 3 92 15 96 27 11 61 -22 99
-95 20 -39 45 -75 56 -81 24 -13 70 -13 70 0 0 6 -18 46 -40 90 -45 90 -48
105 -20 120 46 25 66 130 36 189 -22 41 -59 53 -183 59 l-113 5 0 -237z m170
168 c42 -8 60 -29 60 -70 0 -52 -28 -74 -95 -74 l-55 0 0 81 0 81 30 -6 c17
-3 44 -9 60 -12z"/>
<path fill="#2e5f6d" d="M9090 975 l0 -235 140 0 140 0 0 35 0 35 -100 0 -100 0 0 200 0 200
-40 0 -40 0 0 -235z"/>
<path fill="#2e5f6d" d="M9520 974 l0 -235 38 3 37 3 5 160 5 159 86 -139 c96 -155 111 -172
157 -181 l32 -6 0 236 0 236 -40 0 -40 0 0 -162 0 -162 -77 127 c-107 176
-126 197 -168 197 l-35 0 0 -236z"/>
<path fill="#2e5f6d" d="M10050 1207 c0 -3 30 -67 68 -143 66 -137 67 -140 70 -231 l4 -93 33
0 33 0 4 93 c3 91 4 94 71 231 37 76 67 140 67 143 0 2 -17 3 -37 1 -37 -3
-40 -6 -85 -93 -25 -49 -50 -89 -54 -88 -4 1 -28 41 -53 90 -44 85 -47 88 -83
91 -21 2 -38 1 -38 -1z"/>
</g>
</svg>
